<mxfile host="Electron" agent="Mozilla/5.0 (Windows NT 10.0; Win64; x64) AppleWebKit/537.36 (KHTML, like Gecko) draw.io/26.0.4 Chrome/128.0.6613.186 Electron/32.2.5 Safari/537.36" version="26.0.4">
  <diagram name="Page-1" id="5NBJC3bVgoVCYQ7UvFjZ">
    <mxGraphModel dx="1434" dy="844" grid="1" gridSize="10" guides="1" tooltips="1" connect="1" arrows="1" fold="1" page="1" pageScale="1" pageWidth="827" pageHeight="1169" math="0" shadow="0">
      <root>
        <mxCell id="0" />
        <mxCell id="1" parent="0" />
        <mxCell id="FNNNDntsUIHysSBuFTVx-46" value="" style="whiteSpace=wrap;html=1;aspect=fixed;fillColor=#33001A;rounded=0;" parent="1" vertex="1">
          <mxGeometry x="90" y="210" width="630" height="630" as="geometry" />
        </mxCell>
        <mxCell id="FNNNDntsUIHysSBuFTVx-47" value="&lt;font style=&quot;font-size: 30px;&quot;&gt;2&lt;/font&gt;" style="whiteSpace=wrap;html=1;aspect=fixed;fillColor=#CC0000;strokeWidth=1;rounded=0;" parent="1" vertex="1">
          <mxGeometry x="130" y="240" width="110" height="110" as="geometry" />
        </mxCell>
        <mxCell id="FNNNDntsUIHysSBuFTVx-49" value="&lt;font style=&quot;font-size: 30px;&quot;&gt;4&lt;/font&gt;" style="whiteSpace=wrap;html=1;aspect=fixed;fillColor=#FF0000;rounded=0;" parent="1" vertex="1">
          <mxGeometry x="270" y="240" width="110" height="110" as="geometry" />
        </mxCell>
        <mxCell id="FNNNDntsUIHysSBuFTVx-50" value="&lt;font style=&quot;font-size: 30px;&quot;&gt;8&lt;/font&gt;" style="whiteSpace=wrap;html=1;aspect=fixed;fillColor=#FF6666;rounded=0;" parent="1" vertex="1">
          <mxGeometry x="414" y="240" width="110" height="110" as="geometry" />
        </mxCell>
        <mxCell id="FNNNDntsUIHysSBuFTVx-51" value="&lt;font style=&quot;font-size: 30px;&quot;&gt;16&lt;/font&gt;" style="whiteSpace=wrap;html=1;aspect=fixed;fillColor=#FF9999;rounded=0;" parent="1" vertex="1">
          <mxGeometry x="560" y="240" width="110" height="110" as="geometry" />
        </mxCell>
        <mxCell id="FNNNDntsUIHysSBuFTVx-71" value="" style="edgeStyle=orthogonalEdgeStyle;orthogonalLoop=1;jettySize=auto;html=1;" parent="1" source="FNNNDntsUIHysSBuFTVx-52" target="FNNNDntsUIHysSBuFTVx-47" edge="1">
          <mxGeometry relative="1" as="geometry" />
        </mxCell>
        <mxCell id="FNNNDntsUIHysSBuFTVx-52" value="&lt;font style=&quot;font-size: 30px;&quot;&gt;32&lt;/font&gt;" style="whiteSpace=wrap;html=1;aspect=fixed;fillColor=#FF8000;rounded=0;" parent="1" vertex="1">
          <mxGeometry x="130" y="370" width="110" height="110" as="geometry" />
        </mxCell>
        <mxCell id="FNNNDntsUIHysSBuFTVx-53" value="&lt;font style=&quot;font-size: 30px;&quot;&gt;512&lt;/font&gt;" style="whiteSpace=wrap;html=1;aspect=fixed;fillColor=#FFFF00;rounded=0;" parent="1" vertex="1">
          <mxGeometry x="130" y="510" width="110" height="110" as="geometry" />
        </mxCell>
        <mxCell id="FNNNDntsUIHysSBuFTVx-54" value="0" style="whiteSpace=wrap;html=1;aspect=fixed;rounded=0;" parent="1" vertex="1">
          <mxGeometry x="130" y="650" width="110" height="110" as="geometry" />
        </mxCell>
        <mxCell id="FNNNDntsUIHysSBuFTVx-55" value="&lt;font style=&quot;font-size: 30px;&quot;&gt;64&lt;/font&gt;" style="whiteSpace=wrap;html=1;aspect=fixed;fillColor=#FF9933;rounded=0;" parent="1" vertex="1">
          <mxGeometry x="270" y="370" width="110" height="110" as="geometry" />
        </mxCell>
        <mxCell id="FNNNDntsUIHysSBuFTVx-56" value="&lt;font style=&quot;font-size: 30px;&quot;&gt;128&lt;/font&gt;" style="whiteSpace=wrap;html=1;aspect=fixed;fillColor=#FFB366;rounded=0;" parent="1" vertex="1">
          <mxGeometry x="414" y="370" width="110" height="110" as="geometry" />
        </mxCell>
        <mxCell id="FNNNDntsUIHysSBuFTVx-57" value="&lt;font style=&quot;font-size: 30px;&quot;&gt;256&lt;/font&gt;" style="whiteSpace=wrap;html=1;aspect=fixed;fillColor=#FFCC99;rounded=0;" parent="1" vertex="1">
          <mxGeometry x="560" y="370" width="110" height="110" as="geometry" />
        </mxCell>
        <mxCell id="FNNNDntsUIHysSBuFTVx-58" value="&lt;font style=&quot;font-size: 30px;&quot;&gt;1024&lt;/font&gt;" style="whiteSpace=wrap;html=1;aspect=fixed;fillColor=#FFFF66;rounded=0;" parent="1" vertex="1">
          <mxGeometry x="270" y="510" width="110" height="110" as="geometry" />
        </mxCell>
        <mxCell id="FNNNDntsUIHysSBuFTVx-59" value="&lt;font style=&quot;font-size: 30px;&quot;&gt;2048&lt;/font&gt;" style="whiteSpace=wrap;html=1;aspect=fixed;fillColor=#FFFF66;rounded=0;" parent="1" vertex="1">
          <mxGeometry x="414" y="510" width="110" height="110" as="geometry" />
        </mxCell>
        <mxCell id="FNNNDntsUIHysSBuFTVx-60" value="0" style="whiteSpace=wrap;html=1;aspect=fixed;rounded=0;" parent="1" vertex="1">
          <mxGeometry x="560" y="510" width="110" height="110" as="geometry" />
        </mxCell>
        <mxCell id="FNNNDntsUIHysSBuFTVx-61" value="0" style="whiteSpace=wrap;html=1;aspect=fixed;rounded=0;" parent="1" vertex="1">
          <mxGeometry x="270" y="650" width="110" height="110" as="geometry" />
        </mxCell>
        <mxCell id="FNNNDntsUIHysSBuFTVx-62" value="0" style="whiteSpace=wrap;html=1;aspect=fixed;rounded=0;" parent="1" vertex="1">
          <mxGeometry x="420" y="650" width="110" height="110" as="geometry" />
        </mxCell>
        <mxCell id="FNNNDntsUIHysSBuFTVx-63" value="0" style="whiteSpace=wrap;html=1;aspect=fixed;rounded=0;" parent="1" vertex="1">
          <mxGeometry x="560" y="650" width="110" height="110" as="geometry" />
        </mxCell>
        <mxCell id="FNNNDntsUIHysSBuFTVx-69" value="&lt;font style=&quot;color: rgb(255, 255, 255); font-size: 17px;&quot;&gt;Reset&lt;/font&gt;" style="rounded=0;whiteSpace=wrap;html=1;fillColor=#33001A;" parent="1" vertex="1">
          <mxGeometry x="620" y="160" width="90" height="40" as="geometry" />
        </mxCell>
        <mxCell id="FNNNDntsUIHysSBuFTVx-70" value="" style="swimlane;startSize=0;fillColor=#33001A;rounded=0;strokeColor=default;" parent="1" vertex="1">
          <mxGeometry x="50" y="40" width="710" height="830" as="geometry" />
        </mxCell>
        <mxCell id="FNNNDntsUIHysSBuFTVx-68" value="&lt;font style=&quot;color: rgb(255, 255, 255); font-size: 16px;&quot;&gt;Texte de fin&lt;/font&gt;" style="rounded=0;whiteSpace=wrap;html=1;fillColor=#33001A;" parent="FNNNDntsUIHysSBuFTVx-70" vertex="1">
          <mxGeometry x="40" y="800" width="280" height="30" as="geometry" />
        </mxCell>
        <mxCell id="FNNNDntsUIHysSBuFTVx-65" value="&lt;font style=&quot;color: rgb(255, 255, 255); font-size: 41px;&quot;&gt;Score&lt;/font&gt;" style="rounded=0;whiteSpace=wrap;html=1;fillColor=#33001A;" parent="FNNNDntsUIHysSBuFTVx-70" vertex="1">
          <mxGeometry y="70" width="310" height="90" as="geometry" />
        </mxCell>
      </root>
    </mxGraphModel>
  </diagram>
</mxfile>
